<mxfile host="app.diagrams.net" modified="2022-11-24T01:04:28.338Z" agent="5.0 (Windows NT 10.0; Win64; x64) AppleWebKit/537.36 (KHTML, like Gecko) Chrome/107.0.0.0 Safari/537.36" etag="4AyEMRBPY47hRqDFAfZ4" version="20.5.1" type="github">
  <diagram id="Fvd_MwYm9raCLu-trwHR" name="Page-1">
    <mxGraphModel dx="1619" dy="362" grid="1" gridSize="10" guides="1" tooltips="1" connect="1" arrows="1" fold="1" page="1" pageScale="1" pageWidth="850" pageHeight="1100" math="0" shadow="0">
      <root>
        <mxCell id="0" />
        <mxCell id="1" parent="0" />
        <mxCell id="rBwdkshOeR78V1XTqOZe-11" value="" style="group" vertex="1" connectable="0" parent="1">
          <mxGeometry x="480" y="125" width="310" height="110" as="geometry" />
        </mxCell>
        <mxCell id="rBwdkshOeR78V1XTqOZe-8" value="DynamoDB&lt;br&gt;&lt;br&gt;&lt;br&gt;&lt;br&gt;&lt;br&gt;" style="rounded=0;whiteSpace=wrap;html=1;" vertex="1" parent="rBwdkshOeR78V1XTqOZe-11">
          <mxGeometry width="310" height="110" as="geometry" />
        </mxCell>
        <mxCell id="rBwdkshOeR78V1XTqOZe-9" value="Table For Device List&lt;br&gt;With Users" style="rounded=0;whiteSpace=wrap;html=1;" vertex="1" parent="rBwdkshOeR78V1XTqOZe-11">
          <mxGeometry x="15" y="40" width="120" height="60" as="geometry" />
        </mxCell>
        <mxCell id="rBwdkshOeR78V1XTqOZe-10" value="Table For DevicesData" style="rounded=0;whiteSpace=wrap;html=1;" vertex="1" parent="rBwdkshOeR78V1XTqOZe-11">
          <mxGeometry x="150" y="40" width="120" height="60" as="geometry" />
        </mxCell>
        <mxCell id="rBwdkshOeR78V1XTqOZe-12" value="" style="whiteSpace=wrap;html=1;aspect=fixed;" vertex="1" parent="1">
          <mxGeometry x="-520" y="100" width="280" height="280" as="geometry" />
        </mxCell>
        <mxCell id="rBwdkshOeR78V1XTqOZe-13" value="" style="triangle;whiteSpace=wrap;html=1;rotation=-90;" vertex="1" parent="1">
          <mxGeometry x="-425" y="-95" width="90" height="310" as="geometry" />
        </mxCell>
        <mxCell id="rBwdkshOeR78V1XTqOZe-27" style="edgeStyle=orthogonalEdgeStyle;rounded=0;orthogonalLoop=1;jettySize=auto;html=1;exitX=1;exitY=0.5;exitDx=0;exitDy=0;entryX=0;entryY=0.5;entryDx=0;entryDy=0;" edge="1" parent="1" source="rBwdkshOeR78V1XTqOZe-14" target="rBwdkshOeR78V1XTqOZe-26">
          <mxGeometry relative="1" as="geometry" />
        </mxCell>
        <mxCell id="rBwdkshOeR78V1XTqOZe-14" value="Water Meter" style="rounded=0;whiteSpace=wrap;html=1;" vertex="1" parent="1">
          <mxGeometry x="-435" y="150" width="100" height="40" as="geometry" />
        </mxCell>
        <mxCell id="rBwdkshOeR78V1XTqOZe-24" style="edgeStyle=orthogonalEdgeStyle;rounded=0;orthogonalLoop=1;jettySize=auto;html=1;exitX=1;exitY=0.5;exitDx=0;exitDy=0;entryX=0;entryY=0.5;entryDx=0;entryDy=0;" edge="1" parent="1" source="rBwdkshOeR78V1XTqOZe-15" target="rBwdkshOeR78V1XTqOZe-17">
          <mxGeometry relative="1" as="geometry" />
        </mxCell>
        <mxCell id="rBwdkshOeR78V1XTqOZe-15" value="" style="shape=image;html=1;verticalAlign=top;verticalLabelPosition=bottom;labelBackgroundColor=#ffffff;imageAspect=0;aspect=fixed;image=https://cdn0.iconfinder.com/data/icons/google-material-design-3-0/48/ic_face_48px-128.png" vertex="1" parent="1">
          <mxGeometry x="-310" y="710" width="98" height="98" as="geometry" />
        </mxCell>
        <mxCell id="rBwdkshOeR78V1XTqOZe-22" value="" style="group" vertex="1" connectable="0" parent="1">
          <mxGeometry x="270" y="580" width="510" height="280" as="geometry" />
        </mxCell>
        <mxCell id="rBwdkshOeR78V1XTqOZe-17" value="S3&lt;br&gt;&lt;br&gt;&lt;br&gt;&lt;br&gt;&lt;br&gt;&lt;br&gt;&lt;br&gt;&lt;br&gt;&lt;br&gt;&lt;br&gt;&lt;br&gt;&lt;br&gt;&lt;br&gt;&lt;br&gt;&lt;br&gt;" style="rounded=0;whiteSpace=wrap;html=1;" vertex="1" parent="rBwdkshOeR78V1XTqOZe-22">
          <mxGeometry width="510" height="280" as="geometry" />
        </mxCell>
        <mxCell id="rBwdkshOeR78V1XTqOZe-18" value="Static Webpage" style="rounded=0;whiteSpace=wrap;html=1;" vertex="1" parent="rBwdkshOeR78V1XTqOZe-22">
          <mxGeometry x="10" y="110" width="120" height="60" as="geometry" />
        </mxCell>
        <mxCell id="rBwdkshOeR78V1XTqOZe-19" value="Video Storage" style="rounded=0;whiteSpace=wrap;html=1;" vertex="1" parent="rBwdkshOeR78V1XTqOZe-22">
          <mxGeometry x="160" y="110" width="120" height="60" as="geometry" />
        </mxCell>
        <mxCell id="rBwdkshOeR78V1XTqOZe-20" value="Image Storage" style="rounded=0;whiteSpace=wrap;html=1;" vertex="1" parent="rBwdkshOeR78V1XTqOZe-22">
          <mxGeometry x="310" y="110" width="120" height="60" as="geometry" />
        </mxCell>
        <mxCell id="rBwdkshOeR78V1XTqOZe-21" value="Graph Storage" style="rounded=0;whiteSpace=wrap;html=1;" vertex="1" parent="rBwdkshOeR78V1XTqOZe-22">
          <mxGeometry x="10" y="198" width="120" height="60" as="geometry" />
        </mxCell>
        <mxCell id="rBwdkshOeR78V1XTqOZe-23" value="" style="outlineConnect=0;dashed=0;verticalLabelPosition=bottom;verticalAlign=top;align=center;html=1;shape=mxgraph.aws3.cognito;fillColor=#AD688B;gradientColor=none;" vertex="1" parent="1">
          <mxGeometry x="-30" y="712.5" width="76.5" height="93" as="geometry" />
        </mxCell>
        <mxCell id="rBwdkshOeR78V1XTqOZe-1" value="EC2 Instance&lt;br&gt;&lt;br&gt;&lt;br&gt;&lt;br&gt;&lt;br&gt;&lt;br&gt;&lt;br&gt;&lt;br&gt;&lt;br&gt;" style="whiteSpace=wrap;html=1;aspect=fixed;" vertex="1" parent="1">
          <mxGeometry x="260" y="90" width="190" height="190" as="geometry" />
        </mxCell>
        <mxCell id="rBwdkshOeR78V1XTqOZe-47" style="edgeStyle=orthogonalEdgeStyle;rounded=0;orthogonalLoop=1;jettySize=auto;html=1;entryX=0.5;entryY=0;entryDx=0;entryDy=0;" edge="1" parent="1" source="rBwdkshOeR78V1XTqOZe-6" target="rBwdkshOeR78V1XTqOZe-10">
          <mxGeometry relative="1" as="geometry">
            <Array as="points">
              <mxPoint x="460" y="240" />
              <mxPoint x="460" y="100" />
              <mxPoint x="690" y="100" />
            </Array>
          </mxGeometry>
        </mxCell>
        <mxCell id="rBwdkshOeR78V1XTqOZe-6" value="Nodered-MQTT to DyanamoDB" style="rounded=0;whiteSpace=wrap;html=1;" vertex="1" parent="1">
          <mxGeometry x="290" y="210" width="120" height="60" as="geometry" />
        </mxCell>
        <mxCell id="rBwdkshOeR78V1XTqOZe-28" style="edgeStyle=orthogonalEdgeStyle;rounded=0;orthogonalLoop=1;jettySize=auto;html=1;exitX=0.5;exitY=1;exitDx=0;exitDy=0;" edge="1" parent="1" source="rBwdkshOeR78V1XTqOZe-26" target="rBwdkshOeR78V1XTqOZe-6">
          <mxGeometry relative="1" as="geometry" />
        </mxCell>
        <mxCell id="rBwdkshOeR78V1XTqOZe-26" value="&amp;nbsp;MQTT Broker" style="rounded=0;whiteSpace=wrap;html=1;" vertex="1" parent="1">
          <mxGeometry x="290" y="140" width="120" height="60" as="geometry" />
        </mxCell>
        <mxCell id="rBwdkshOeR78V1XTqOZe-37" style="edgeStyle=orthogonalEdgeStyle;rounded=0;orthogonalLoop=1;jettySize=auto;html=1;" edge="1" parent="1" source="rBwdkshOeR78V1XTqOZe-30" target="rBwdkshOeR78V1XTqOZe-36">
          <mxGeometry relative="1" as="geometry" />
        </mxCell>
        <mxCell id="rBwdkshOeR78V1XTqOZe-30" value="Pull From Data DB&lt;br&gt;Check for Alarm Condition" style="sketch=0;outlineConnect=0;fontColor=#232F3E;gradientColor=none;fillColor=#D45B07;strokeColor=none;dashed=0;verticalLabelPosition=bottom;verticalAlign=top;align=center;html=1;fontSize=12;fontStyle=0;aspect=fixed;pointerEvents=1;shape=mxgraph.aws4.lambda_function;" vertex="1" parent="1">
          <mxGeometry x="760" y="309.5" width="48" height="48" as="geometry" />
        </mxCell>
        <mxCell id="rBwdkshOeR78V1XTqOZe-32" value="" style="group" vertex="1" connectable="0" parent="1">
          <mxGeometry x="600" y="309.5" width="55.5" height="53" as="geometry" />
        </mxCell>
        <mxCell id="rBwdkshOeR78V1XTqOZe-29" value="Go through device&lt;br&gt;&amp;nbsp;list every 10 minutes" style="sketch=0;outlineConnect=0;fontColor=#232F3E;gradientColor=none;fillColor=#D45B07;strokeColor=none;dashed=0;verticalLabelPosition=bottom;verticalAlign=top;align=center;html=1;fontSize=12;fontStyle=0;aspect=fixed;pointerEvents=1;shape=mxgraph.aws4.lambda_function;" vertex="1" parent="rBwdkshOeR78V1XTqOZe-32">
          <mxGeometry x="7.5" width="48" height="48" as="geometry" />
        </mxCell>
        <mxCell id="rBwdkshOeR78V1XTqOZe-31" value="" style="shape=image;html=1;verticalAlign=top;verticalLabelPosition=bottom;labelBackgroundColor=#ffffff;imageAspect=0;aspect=fixed;image=https://cdn1.iconfinder.com/data/icons/CrystalClear/16x16/actions/recur.png" vertex="1" parent="rBwdkshOeR78V1XTqOZe-32">
          <mxGeometry y="28" width="25" height="25" as="geometry" />
        </mxCell>
        <mxCell id="rBwdkshOeR78V1XTqOZe-33" style="edgeStyle=orthogonalEdgeStyle;rounded=0;orthogonalLoop=1;jettySize=auto;html=1;" edge="1" parent="1" source="rBwdkshOeR78V1XTqOZe-29" target="rBwdkshOeR78V1XTqOZe-30">
          <mxGeometry relative="1" as="geometry" />
        </mxCell>
        <mxCell id="rBwdkshOeR78V1XTqOZe-34" style="edgeStyle=orthogonalEdgeStyle;rounded=0;orthogonalLoop=1;jettySize=auto;html=1;exitX=0.5;exitY=1;exitDx=0;exitDy=0;" edge="1" parent="1" source="rBwdkshOeR78V1XTqOZe-10" target="rBwdkshOeR78V1XTqOZe-30">
          <mxGeometry relative="1" as="geometry" />
        </mxCell>
        <mxCell id="rBwdkshOeR78V1XTqOZe-35" style="edgeStyle=orthogonalEdgeStyle;rounded=0;orthogonalLoop=1;jettySize=auto;html=1;exitX=0.5;exitY=1;exitDx=0;exitDy=0;" edge="1" parent="1" source="rBwdkshOeR78V1XTqOZe-9" target="rBwdkshOeR78V1XTqOZe-29">
          <mxGeometry relative="1" as="geometry" />
        </mxCell>
        <mxCell id="rBwdkshOeR78V1XTqOZe-36" value="" style="dashed=0;outlineConnect=0;html=1;align=center;labelPosition=center;verticalLabelPosition=bottom;verticalAlign=top;shape=mxgraph.weblogos.sms;fillColor=#48B921;strokeColor=none" vertex="1" parent="1">
          <mxGeometry x="920" y="304" width="69.2" height="64" as="geometry" />
        </mxCell>
        <mxCell id="rBwdkshOeR78V1XTqOZe-46" style="edgeStyle=orthogonalEdgeStyle;rounded=0;orthogonalLoop=1;jettySize=auto;html=1;entryX=0.5;entryY=0;entryDx=0;entryDy=0;" edge="1" parent="1" source="rBwdkshOeR78V1XTqOZe-38" target="rBwdkshOeR78V1XTqOZe-19">
          <mxGeometry relative="1" as="geometry">
            <Array as="points">
              <mxPoint x="-385" y="430" />
              <mxPoint x="490" y="430" />
            </Array>
          </mxGeometry>
        </mxCell>
        <mxCell id="rBwdkshOeR78V1XTqOZe-38" value="" style="fontColor=#0066CC;verticalAlign=top;verticalLabelPosition=bottom;labelPosition=center;align=center;html=1;outlineConnect=0;fillColor=#CCCCCC;strokeColor=#6881B3;gradientColor=none;gradientDirection=north;strokeWidth=2;shape=mxgraph.networks.security_camera;" vertex="1" parent="1">
          <mxGeometry x="-435" y="229" width="100" height="75" as="geometry" />
        </mxCell>
        <mxCell id="rBwdkshOeR78V1XTqOZe-39" value="" style="group" vertex="1" connectable="0" parent="1">
          <mxGeometry x="1130" y="309.5" width="55.5" height="53" as="geometry" />
        </mxCell>
        <mxCell id="rBwdkshOeR78V1XTqOZe-40" value="Build Report Daily" style="sketch=0;outlineConnect=0;fontColor=#232F3E;gradientColor=none;fillColor=#D45B07;strokeColor=none;dashed=0;verticalLabelPosition=bottom;verticalAlign=top;align=center;html=1;fontSize=12;fontStyle=0;aspect=fixed;pointerEvents=1;shape=mxgraph.aws4.lambda_function;" vertex="1" parent="rBwdkshOeR78V1XTqOZe-39">
          <mxGeometry x="7.5" width="48" height="48" as="geometry" />
        </mxCell>
        <mxCell id="rBwdkshOeR78V1XTqOZe-41" value="" style="shape=image;html=1;verticalAlign=top;verticalLabelPosition=bottom;labelBackgroundColor=#ffffff;imageAspect=0;aspect=fixed;image=https://cdn1.iconfinder.com/data/icons/CrystalClear/16x16/actions/recur.png" vertex="1" parent="rBwdkshOeR78V1XTqOZe-39">
          <mxGeometry y="28" width="25" height="25" as="geometry" />
        </mxCell>
        <mxCell id="rBwdkshOeR78V1XTqOZe-42" style="edgeStyle=orthogonalEdgeStyle;rounded=0;orthogonalLoop=1;jettySize=auto;html=1;" edge="1" parent="1" source="rBwdkshOeR78V1XTqOZe-40" target="rBwdkshOeR78V1XTqOZe-36">
          <mxGeometry relative="1" as="geometry" />
        </mxCell>
        <mxCell id="rBwdkshOeR78V1XTqOZe-44" style="edgeStyle=orthogonalEdgeStyle;rounded=0;orthogonalLoop=1;jettySize=auto;html=1;entryX=0.25;entryY=1;entryDx=0;entryDy=0;" edge="1" parent="1" source="rBwdkshOeR78V1XTqOZe-43" target="rBwdkshOeR78V1XTqOZe-9">
          <mxGeometry relative="1" as="geometry" />
        </mxCell>
        <mxCell id="rBwdkshOeR78V1XTqOZe-43" value="Process New devices" style="sketch=0;outlineConnect=0;fontColor=#232F3E;gradientColor=none;fillColor=#D45B07;strokeColor=none;dashed=0;verticalLabelPosition=bottom;verticalAlign=top;align=center;html=1;fontSize=12;fontStyle=0;aspect=fixed;pointerEvents=1;shape=mxgraph.aws4.lambda_function;" vertex="1" parent="1">
          <mxGeometry x="300" y="460" width="48" height="48" as="geometry" />
        </mxCell>
        <mxCell id="rBwdkshOeR78V1XTqOZe-45" style="edgeStyle=orthogonalEdgeStyle;rounded=0;orthogonalLoop=1;jettySize=auto;html=1;exitX=0.5;exitY=0;exitDx=0;exitDy=0;" edge="1" parent="1" source="rBwdkshOeR78V1XTqOZe-18" target="rBwdkshOeR78V1XTqOZe-43">
          <mxGeometry relative="1" as="geometry" />
        </mxCell>
        <mxCell id="rBwdkshOeR78V1XTqOZe-48" value="User Login App&lt;br&gt;Barn Adding&lt;br&gt;Device Adding App&lt;br&gt;Scheduling App&lt;br&gt;View Device List&lt;br&gt;View Current State&lt;br&gt;View Barns" style="rounded=0;whiteSpace=wrap;html=1;" vertex="1" parent="1">
          <mxGeometry x="130" y="655" width="120" height="130" as="geometry" />
        </mxCell>
      </root>
    </mxGraphModel>
  </diagram>
</mxfile>
